<?xml version="1.0" encoding="UTF-8" standalone="no"?>
<!-- Created with Inkscape (http://www.inkscape.org/) -->

<svg
   width="64"
   height="64"
   viewBox="0 0 16.933333 16.933333"
   version="1.1"
   id="svg5"
   inkscape:version="1.2.2 (732a01da63, 2022-12-09)"
   sodipodi:docname="jira-printer-logo-outline.svg"
   xmlns:inkscape="http://www.inkscape.org/namespaces/inkscape"
   xmlns:sodipodi="http://sodipodi.sourceforge.net/DTD/sodipodi-0.dtd"
   xmlns="http://www.w3.org/2000/svg"
   xmlns:svg="http://www.w3.org/2000/svg">
  <sodipodi:namedview
     id="namedview7"
     pagecolor="#ffffff"
     bordercolor="#111111"
     borderopacity="1"
     inkscape:showpageshadow="0"
     inkscape:pageopacity="0"
     inkscape:pagecheckerboard="1"
     inkscape:deskcolor="#d1d1d1"
     inkscape:document-units="mm"
     showgrid="false"
     inkscape:zoom="11.313708"
     inkscape:cx="20.064155"
     inkscape:cy="31.908194"
     inkscape:window-width="1920"
     inkscape:window-height="1009"
     inkscape:window-x="1592"
     inkscape:window-y="-8"
     inkscape:window-maximized="1"
     inkscape:current-layer="layer1" />
  <defs
     id="defs2" />
  <g
     inkscape:label="Ebene 1"
     inkscape:groupmode="layer"
     id="layer1">
    <path
       style="fill:none;stroke:#000000;stroke-width:0.279392"
       d="m 2.1416644,2.3376842 c 0,0 9.7535456,-0.033234 10.1276596,-0.033234 0.985464,0 3.307292,0.2481978 3.307292,2.9272297 0,3.1751258 -1.947179,3.0619969 -3.307292,3.0619969 h -1.982722 v 3.9753822 c 0,0 0.260788,2.038933 -1.5641961,2.059125 -0.2104924,0.0023 -5.8560492,-0.0025 -5.8560492,-0.0025 0,0 -0.5235666,0.0115 -0.7393904,-0.737122 C 2.0356423,13.27179 2.0474103,11.01793 2.0474103,11.01793 h 2.4106306 c 0,0 -0.022081,1.260154 0.1911742,1.260154 0.2132563,0 1.8533344,0.0026 2.172782,0 0.8819527,-0.0071 1.0417368,-0.150041 1.0417368,-1.782365 l 0,-6.1348955 H 3.450117 Z"
       id="path135"
       sodipodi:nodetypes="csssccscsccsssccc" />
    <path
       style="fill:none;stroke:#000000;stroke-width:0.264583"
       d="m 10.292166,4.342172 c 0,0 0.913703,1.622e-4 1.506232,1.622e-4 0.705707,0 1.783302,0.00324 1.783302,0.958079 0,1.0287354 -1.061433,1.0247407 -1.783302,1.0247407 -0.628342,0 -1.506232,-0.011174 -1.506232,-0.011174 z"
       id="path341"
       sodipodi:nodetypes="cssscc" />
  </g>
</svg>
